# xmcd
#
# Track frame offsets:
#	150
#	18756
#	37063
#	52601
#	76035
#	93862
#	113596
#	129065
#	144462
#	163789
#
# Disc length: 2467 seconds
#
# Revision: 0
# Processed by: cddbd v1.4PL0 Copyright (c) Steve Scherf et al.
# Submitted via: EZCDDA 4.3.3.2
#
DISCID=6509a10a
DTITLE=Zucchero - Spirito DiVino
DYEAR=1900
DGENRE=
TTITLE0=Voodoo voodoo
TTITLE1=Datemi una pompa
TTITLE2=O.L.S.M.M
TTITLE3=Pane e sale
TTITLE4=X colpa di chi
TTITLE5=Il volo
TTITLE6=Senza rimorso
TTITLE7=Papà perché
TTITLE8=Così celeste
TTITLE9=Alleluja
EXTD=
EXTT0=
EXTT1=
EXTT2=
EXTT3=
EXTT4=
EXTT5=
EXTT6=
EXTT7=
EXTT8=
EXTT9=
PLAYORDER=
